<svg t="1735096656340" class="icon" viewBox="0 0 1024 1024" version="1.1" xmlns="http://www.w3.org/2000/svg" p-id="5810" ><path d="M513.536 510.7712m-453.2224 0a453.2224 453.2224 0 1 0 906.4448 0 453.2224 453.2224 0 1 0-906.4448 0Z" fill="#58A2F8" p-id="5811"></path><path d="M513.536 57.5488c-250.3168 0-453.2224 202.9056-453.2224 453.2224 0 99.7888 32.256 192 86.8864 266.8544 74.8544 54.6304 167.0656 86.8864 266.8544 86.8864 250.3168 0 453.2224-202.9056 453.2224-453.2224 0-99.7888-32.256-192-86.8864-266.8544-74.9056-54.6304-167.1168-86.8864-266.8544-86.8864z" fill="#57ADFA" p-id="5812"></path><path d="M757.1968 304.2304c0-72.6016-17.152-141.2096-47.5136-202.0352-59.3408-28.5696-125.8496-44.5952-196.096-44.5952-250.3168 0-453.2224 202.9056-453.2224 453.2224 0 72.6016 17.152 141.2096 47.5136 202.0352 59.3408 28.5696 125.8496 44.5952 196.096 44.5952 250.2656 0 453.2224-202.9056 453.2224-453.2224z" fill="#55C2FD" p-id="5813"></path><path d="M60.3136 510.7712c0 38.912 4.9664 76.6464 14.2336 112.64a443.5968 443.5968 0 0 0 114.688 15.0528c245.7088 0 444.928-199.2192 444.928-444.928 0-43.1616-6.2464-84.7872-17.7152-124.2112-33.024-7.68-67.4816-11.776-102.8608-11.776-250.368 0-453.2736 202.9056-453.2736 453.2224z" fill="#54D2FF" p-id="5814"></path><path d="M60.3136 510.7712c0 38.912 4.9664 76.6464 14.2336 112.64a443.5968 443.5968 0 0 0 114.688 15.0528c245.7088 0 444.928-199.2192 444.928-444.928 0-43.1616-6.2464-84.7872-17.7152-124.2112-33.024-7.68-67.4816-11.776-102.8608-11.776-250.368 0-453.2736 202.9056-453.2736 453.2224z" fill="#54D2FF" p-id="5815"></path><path d="M588.1344 622.3872l144.2816-94.464s6.5024 4.0448 6.5024 18.5344v200.0384s-8.448 59.4432-128.8192 93.7472c-62.0032 12.6976-119.0912 16.896-186.624 2.816 3.5328-71.4752 164.6592-220.672 164.6592-220.672z" fill="#BFE0FF" p-id="5816"></path><path d="M863.2832 358.6048L530.944 187.8528a49.00352 49.00352 0 0 0-45.0048 0.1024L157.7984 358.656c-14.9504 7.7824-14.9504 28.928 0 36.7104l35.9936 18.7392v134.0928c0 12.9024 10.5984 23.3472 23.6544 23.3472 13.056 0 23.6544-10.4448 23.6544-23.3472V438.6816l244.7872 127.3344a49.00352 49.00352 0 0 0 45.0048 0.1024l332.3392-170.752c15.104-7.7312 15.104-29.0304 0.0512-36.7616z" fill="#D6EBFF" p-id="5817"></path><path d="M217.4976 571.5456c13.056 0 23.6544-10.4448 23.6544-23.3472v-43.6224l-47.0016 47.0016c1.6896 11.264 11.4176 19.968 23.3472 19.968zM548.7104 197.0176L284.4672 461.2608l171.3152 89.088 264.96-264.96z" fill="#EAF5FF" p-id="5818"></path><path d="M530.944 187.8528a49.00352 49.00352 0 0 0-45.0048 0.1024L157.7984 358.656c-14.9504 7.7824-14.9504 28.928 0 36.7104l35.9936 18.7392v134.0928c0 1.1776 0.2048 2.2528 0.3584 3.3792l47.0016-47.0016V438.6816l43.3152 22.528 264.2432-264.2432-17.7664-9.1136z" fill="#FFFFFF" p-id="5819"></path><path d="M707.7888 523.4176l-157.6448 85.0944c-24.6272 13.312-54.2208 13.312-78.848 0l-47.8208-25.8048-140.8 140.8v23.04c0 3.6864 0.8704 7.2704 2.6112 10.496 8.96 16.4864 43.3152 66.2016 138.1888 86.016l311.7056-311.7056c-5.632-8.6528-17.0496-12.8-27.392-7.936z" fill="#D6EBFF" p-id="5820"></path><path d="M423.4752 582.7072l-109.824-59.2896c-14.4384-6.7584-30.976 3.8912-30.976 20.0192v180.0704l140.8-140.8zM217.4976 606.5664c-13.056 0-23.6544 10.4448-23.6544 23.3472v16.1792c0 12.9024 10.5984 23.3472 23.6544 23.3472 13.056 0 23.6544-10.4448 23.6544-23.3472v-16.1792c0-12.9024-10.5984-23.3472-23.6544-23.3472z" fill="#EAF5FF" p-id="5821"></path></svg>