<svg t="1735041834096" class="icon" viewBox="0 0 1024 1024" version="1.1" xmlns="http://www.w3.org/2000/svg" p-id="8305" ><path d="M512 512m-512 0a512 512 0 1 0 1024 0 512 512 0 1 0-1024 0Z" fill="#8BB7F9" opacity=".15" p-id="8306"></path><path d="M657.594182 273.070545a83.781818 83.781818 0 0 0-11.112727 0.744728l-335.592728 44.741818a82.909091 82.909091 0 0 0-71.959272 82.187636v222.580364a82.909091 82.909091 0 0 0 71.959272 82.187636l335.581091 44.648728a82.804364 82.804364 0 0 0 93.870546-82.187637v-311.982545a82.932364 82.932364 0 0 0-82.746182-82.920728m-132.654546 254.673455l-61.277091 35.386182a27.822545 27.822545 0 0 1-41.739636-24.087273v-70.784a27.822545 27.822545 0 0 1 41.739636-24.087273l61.277091 35.386182a27.822545 27.822545 0 0 1 0 48.186182" fill="#6DA9F7" p-id="8307"></path></svg>