<svg t="1735042074874" class="icon" viewBox="0 0 1024 1024" version="1.1" xmlns="http://www.w3.org/2000/svg" p-id="14474" ><path d="M0 0h1024v1024H0z" fill-opacity="0" p-id="14475"></path><path d="M850.773333 163.157333h-85.333333a450.730667 450.730667 0 0 0-177.493333 36.522667l-48.64 20.821333a52.394667 52.394667 0 0 1-40.618667 0l-48.469333-20.821333A450.218667 450.218667 0 0 0 273.066667 163.157333h-85.333334a102.4 102.4 0 0 0-102.4 101.205334v448.341333a102.4 102.4 0 0 0 102.4 101.205333h85.333334a450.048 450.048 0 0 1 177.493333 36.352L498.858667 870.4a51.2 51.2 0 0 0 40.618666 0l48.469334-20.821333a453.632 453.632 0 0 1 177.493333-36.352h85.333333a102.4 102.4 0 0 0 102.4-101.034667V264.362667a102.4 102.4 0 0 0-102.4-101.205334zM396.970667 694.272a34.133333 34.133333 0 0 1-8.362667-1.194667 417.450667 417.450667 0 0 0-135.168-18.602666 34.986667 34.986667 0 0 1-34.133333-35.328v-286.72a34.133333 34.133333 0 0 1 34.133333-35.157334 285.184 285.184 0 0 1 134.656 28.330667 55.637333 55.637333 0 0 1 34.133333 40.277333v275.285334c1.024 20.138667-10.069333 33.109333-25.258666 33.109333zM564.394667 375.466667a18.602667 18.602667 0 0 1 0-3.072v-1.194667c0 2.901333 0 5.12 0 0 0-12.8 17.066667-31.232 38.058666-39.424a556.032 556.032 0 0 1 190.634667-27.989333 36.693333 36.693333 0 0 1 37.888 31.744 38.912 38.912 0 0 1-37.888 31.914666 1103.018667 1103.018667 0 0 0-191.146667 35.669334 52.224 52.224 0 0 1-9.216 1.194666A29.525333 29.525333 0 0 1 564.394667 375.466667z m267.605333 122.709333c0 22.186667-15.701333 19.626667-34.133333 21.845333a915.968 915.968 0 0 0-174.08 35.498667 62.293333 62.293333 0 0 1-17.066667 2.730667c-10.752 0-18.090667-5.12-18.090667-21.162667a74.752 74.752 0 0 0 0-8.874667c0-12.8 11.946667-23.893333 31.402667-32.085333A493.056 493.056 0 0 1 797.354667 460.8a34.133333 34.133333 0 0 1 34.133333 34.133333z" fill="#00C400" p-id="14476"></path><path d="M366.421333 250.88a527.530667 527.530667 0 0 0-132.949333-11.946667 17.92 17.92 0 1 1-3.754667-34.133333h2.048a567.296 567.296 0 0 1 144.042667 12.288 17.92 17.92 0 0 1-4.778667 35.328 21.162667 21.162667 0 0 1-4.608-1.536zM162.133333 238.933333a18.090667 18.090667 0 0 1 0-36.010666h10.581334a18.090667 18.090667 0 0 1 0 36.010666z" fill="#FFFFFF" p-id="14477"></path></svg>