<svg t="1735041874809" class="icon" viewBox="0 0 1024 1024" version="1.1" xmlns="http://www.w3.org/2000/svg" p-id="10391"><path d="M164.375 0h473.302L928 289.811v666.566c0 37.347-30.33 67.623-67.742 67.623H164.375c-37.413 0-67.742-30.276-67.742-67.623V67.623C96.633 30.276 126.963 0 164.375 0z" fill="#19A15F" p-id="10392"></path><path d="M638.117 0L928 289.811v166.153L661.63 273.41z" fill="#128D51" p-id="10393"></path><path d="M316.955 550.642c21.35 0 38.658-17.3 38.658-38.642 0-21.341-17.308-38.642-38.658-38.642s-38.658 17.3-38.658 38.642c0 21.341 17.308 38.642 38.658 38.642z m0 115.924c21.35 0 38.658-17.3 38.658-38.641 0-21.342-17.308-38.642-38.658-38.642s-38.658 17.3-38.658 38.642c0 21.34 17.308 38.641 38.658 38.641z m0 115.925c21.35 0 38.658-17.3 38.658-38.642 0-21.341-17.308-38.641-38.658-38.641s-38.658 17.3-38.658 38.641c0 21.341 17.308 38.642 38.658 38.642z m109.813-299.472h320v57.962h-320V483.02z m0 115.924h320v57.963h-320v-57.963z m0 115.925h320v57.962h-320v-57.962z" fill="#FFFFFF" p-id="10394"></path><path d="M638.065 0L928 289.811H705.716c-37.363 0-67.651-30.275-67.651-67.622V0z" fill="#93D3B5" p-id="10395"></path></svg>